<?xml version="1.0" encoding="UTF-8" standalone="no"?>
<!-- Created with Inkscape (http://www.inkscape.org/) -->

<svg
   xmlns:dc="http://purl.org/dc/elements/1.1/"
   xmlns:cc="http://creativecommons.org/ns#"
   xmlns:rdf="http://www.w3.org/1999/02/22-rdf-syntax-ns#"
   xmlns:svg="http://www.w3.org/2000/svg"
   xmlns="http://www.w3.org/2000/svg"
   xmlns:sodipodi="http://sodipodi.sourceforge.net/DTD/sodipodi-0.dtd"
   xmlns:inkscape="http://www.inkscape.org/namespaces/inkscape"
   width="904.59662"
   height="9.2764769"
   id="svg3325"
   version="1.1"
   inkscape:version="0.48.3.1 r9886"
   sodipodi:docname="bar.svg"
   inkscape:export-filename="/home/yann/git/hack/hj/dojo/static/img/bar.png"
   inkscape:export-xdpi="107.45121"
   inkscape:export-ydpi="107.45121">
  <defs
     id="defs3327" />
  <sodipodi:namedview
     id="base"
     pagecolor="#ffffff"
     bordercolor="#666666"
     borderopacity="1.0"
     inkscape:pageopacity="0.0"
     inkscape:pageshadow="2"
     inkscape:zoom="1.9677279"
     inkscape:cx="452.29831"
     inkscape:cy="4.6382387"
     inkscape:document-units="px"
     inkscape:current-layer="layer1"
     showgrid="false"
     fit-margin-top="0"
     fit-margin-left="0"
     fit-margin-right="0"
     fit-margin-bottom="0"
     inkscape:snap-bbox="true"
     inkscape:snap-global="false"
     inkscape:window-width="1918"
     inkscape:window-height="1163"
     inkscape:window-x="0"
     inkscape:window-y="0"
     inkscape:window-maximized="0" />
  <metadata
     id="metadata3330">
    <rdf:RDF>
      <cc:Work
         rdf:about="">
        <dc:format>image/svg+xml</dc:format>
        <dc:type
           rdf:resource="http://purl.org/dc/dcmitype/StillImage" />
        <dc:title></dc:title>
      </cc:Work>
    </rdf:RDF>
  </metadata>
  <g
     inkscape:label="Layer 1"
     inkscape:groupmode="layer"
     id="layer1"
     transform="translate(795.15545,275.36005)">
    <path
       id="path3312"
       d="m -785.63718,-275.33231 c 1.16817,-0.009 2.33623,-0.0344 3.50452,-0.0261 1.509,0.0108 2.99692,0.0593 4.49956,0.0832 2.13625,0.034 4.29189,0.0416 6.41605,0.0903 2.36128,0.0542 4.68394,0.14271 7.02083,0.21788 9.42826,0.30326 7.47981,0.24432 17.25701,0.61825 3.36169,0.13981 6.72339,0.27961 10.08509,0.41942 3.67495,0.1686 7.32346,0.35153 11.02485,0.50581 4.29238,0.17891 8.65073,0.3185 12.94989,0.4935 19.14395,0.77931 8.83718,0.45241 29.19109,1.19655 5.74901,0.21019 11.5345,0.39598 17.30174,0.59396 20.84135,0.64581 41.67111,1.32891 62.76306,1.75929 8.53779,0.17421 17.12723,0.28215 25.68477,0.43164 44.21748,0.77241 9.03948,0.22467 55.02363,0.89783 44.03777,0.56757 15.32982,0.23209 60.47323,0.67136 10.30178,0.10025 20.59327,0.22659 30.90099,0.31114 32.02715,0.2627 64.09833,0.37686 96.16047,0.4663 33.064,0.0997 66.13407,-0.0124 99.17944,-0.18041 11.1497,-0.0567 22.30234,-0.10648 33.44355,-0.19423 11.39216,-0.0897 22.76688,-0.22587 34.1506,-0.33813 11.04524,-0.10893 22.09085,-0.21697 33.13627,-0.32546 11.04989,-0.15556 22.09703,-0.31582 33.14967,-0.46667 10.316849,-0.14082 20.647399,-0.25791 30.958529,-0.40832 23.85955,-0.34803 33.09274,-0.53923 56.50212,-0.9756 30.01282,-0.55947 16.3463903,-0.27967 44.46429,-0.90653 21.74133,-0.49334 11.87953,-0.22272 32.12752,-0.85286 3.88087,-0.12078 7.78513,-0.22523 11.63955,-0.36465 7.74892,-0.28027 15.41771,-0.64145 22.91254,-1.05192 2.31662,-0.14995 5.205261,-0.3264 7.505091,-0.50771 0.70209,-0.0554 2.73415,-0.24243 2.04809,-0.1825 -23.222381,2.02856 -17.122081,1.48411 -12.273781,1.06706 0.53151,-0.01 -0.17333,-0.006 0.0798,0.0549 0.1808,0.0437 0.77553,0.0328 0.85289,0.0832 0.0397,0.0259 -0.16116,0.0481 -0.18762,0.0744 0.12445,0.004 0.3772,-0.006 0.37336,0.0132 -0.0265,0.13551 -0.77325,-0.088 -0.35996,-0.19597 0.96851,-0.25298 4.24748,-0.56563 5.22509,-0.6775 0,0 0.40409,-0.0377 0.40409,-0.0377 l 0,0 c 0.744961,-0.0511 4.875221,-0.29936 6.322681,-0.47045 0.6666,-0.0788 0.73255,-0.20612 1.68749,-0.24622 0.11726,-0.005 0.18389,0.0245 0.27583,0.0367 0.13856,-0.004 0.30222,-0.0246 0.41568,-0.0117 0.10013,0.0113 -0.0747,0.0408 -0.0127,0.0574 0.092,0.0246 0.36274,0.0273 0.42863,0.0539 0.0928,0.0373 -0.0726,0.0817 0.003,0.11994 0.38098,0.19243 0.42892,-0.0562 0.31681,0.12704 -3.69529,0.75021 -15.275321,1.44391 -16.436061,1.5457 -2.7139,0.23799 -5.72106,0.38391 -8.67452,0.53121 -4.19222,0.19548 -8.14515,0.38947 -12.44142,0.54164 -16.56628,0.58676 -33.4861,0.88631 -50.3179,1.2219 -32.45247,0.57205 -64.97079,1.04012 -97.50887,1.48058 -10.36796,0.14034 -20.72801,0.29501 -31.102339,0.4237 -10.73943,0.13321 -21.49137,0.24131 -32.23705,0.36196 -28.3128,0.30615 -38.87703,0.44241 -67.28287,0.6608 -11.22451,0.0863 -22.45562,0.15102 -33.68517,0.22003 -11.29693,0.0694 -22.59106,0.1557 -33.89406,0.19527 -10.96641,0.0384 -21.93761,0.0317 -32.90676,0.0386 -10.97487,0.007 -21.94992,0.002 -32.92488,0.003 -10.81497,-0.0286 -21.63202,-0.0423 -32.44489,-0.0858 -27.95317,-0.11236 -35.6108,-0.20715 -63.43982,-0.41501 -10.549,-0.0788 -21.10577,-0.13453 -31.64911,-0.22959 -0.98575,-0.009 -59.32945,-0.64454 -60.613,-0.65851 -32.33097,-0.39356 -24.76896,-0.2708 -56.22609,-0.77109 -8.59612,-0.13671 -17.20325,-0.25976 -25.77829,-0.42489 -21.45651,-0.41322 -42.79485,-0.98852 -63.99523,-1.6389 -14.69508,-0.48169 -19.00084,-0.59993 -33.22263,-1.1509 -4.6739,-0.18107 -9.30454,-0.38779 -13.97159,-0.573 -11.56657,-0.45901 -23.17408,-0.89554 -34.76785,-1.33787 -12.32597,-0.4719 -5.50497,-0.24237 -17.46212,-0.58132 -2.35417,-0.0667 -4.68982,-0.15034 -7.05845,-0.20358 -4.81998,-0.10833 -9.6494,-0.12328 -14.50263,-0.0801 0,0 9.51817,-1.09711 9.51817,-1.09711 z"
       inkscape:connector-curvature="0"
       inkscape:export-xdpi="90"
       inkscape:export-ydpi="90" />
  </g>
</svg>
