<?xml version="1.0" encoding="UTF-8" standalone="no"?>
<!-- Created with Inkscape (http://www.inkscape.org/) -->

<svg
   xmlns:dc="http://purl.org/dc/elements/1.1/"
   xmlns:cc="http://creativecommons.org/ns#"
   xmlns:rdf="http://www.w3.org/1999/02/22-rdf-syntax-ns#"
   xmlns:svg="http://www.w3.org/2000/svg"
   xmlns="http://www.w3.org/2000/svg"
   xmlns:sodipodi="http://sodipodi.sourceforge.net/DTD/sodipodi-0.dtd"
   xmlns:inkscape="http://www.inkscape.org/namespaces/inkscape"
   width="306.64246"
   height="218.61647"
   id="svg3103"
   version="1.1"
   inkscape:version="0.48.3.1 r9886"
   sodipodi:docname="logo.svg"
   inkscape:export-filename="/home/yann/git/hack/hj/dojo/static/img/logo.png"
   inkscape:export-xdpi="90"
   inkscape:export-ydpi="90">
  <defs
     id="defs3105" />
  <sodipodi:namedview
     id="base"
     pagecolor="#ffffff"
     bordercolor="#666666"
     borderopacity="1.0"
     inkscape:pageopacity="0.0"
     inkscape:pageshadow="2"
     inkscape:zoom="3.959798"
     inkscape:cx="131.68158"
     inkscape:cy="127.12842"
     inkscape:document-units="px"
     inkscape:current-layer="layer1"
     showgrid="false"
     inkscape:window-width="1918"
     inkscape:window-height="1163"
     inkscape:window-x="0"
     inkscape:window-y="0"
     inkscape:window-maximized="0"
     fit-margin-top="0"
     fit-margin-left="0"
     fit-margin-right="0"
     fit-margin-bottom="0" />
  <metadata
     id="metadata3108">
    <rdf:RDF>
      <cc:Work
         rdf:about="">
        <dc:format>image/svg+xml</dc:format>
        <dc:type
           rdf:resource="http://purl.org/dc/dcmitype/StillImage" />
        <dc:title></dc:title>
      </cc:Work>
    </rdf:RDF>
  </metadata>
  <g
     inkscape:label="Layer 1"
     inkscape:groupmode="layer"
     id="layer1"
     transform="translate(-221.67877,-423.05395)">
    <path
       style="fill:#000000;fill-opacity:1;fill-rule:nonzero;stroke:none"
       id="path3063"
       d="m 278.11915,434.18789 c 1.95708,5.06109 1.74165,10.48603 1.72701,15.80544 -0.031,11.27102 0.46106,4.81638 -1.5865,17.62066 -2.37344,12.41763 -3.87442,24.97608 -5.82597,37.45896 -0.72518,4.63858 -1.62291,9.24893 -2.36242,13.88525 -1.50458,9.43284 -2.55946,17.52058 -3.85319,26.97125 -0.58867,4.35176 -1.15301,8.70687 -1.76599,13.05526 -0.61451,4.35916 -1.43188,8.69148 -1.91644,13.067 -0.47071,4.25042 -0.63201,8.52944 -0.94753,12.79419 -0.79742,10.77835 -0.96204,16.68497 -2.91026,27.478 -0.93522,5.18106 -2.28204,10.27932 -3.42306,15.41898 0.15801,4.48916 0.31602,8.97831 0.47403,13.46747 0,0 -0.89416,0.46007 -0.89416,0.46007 l 0,0 c -0.13804,-4.49895 -0.27607,-8.9979 -0.41411,-13.49685 -4.8906,-9.89793 -6.86548,-11.67877 -8.00515,-22.92292 -0.4332,-4.27401 -0.0972,-8.59567 0.0923,-12.88741 0.58577,-13.26823 3.06569,-26.28654 5.25626,-39.35281 0.87149,-4.56379 1.84899,-9.10861 2.61445,-13.69137 1.1232,-6.72454 2.8675,-20.1776 3.43549,-27.0077 0.35127,-4.2241 0.3474,-8.47219 0.67794,-12.69797 0.31908,-4.07947 1.20934,-8.1184 1.2703,-12.20987 0.0496,-3.32964 -0.62681,-6.63045 -0.94022,-9.94567 -1.97014,-17.01897 0.10862,-0.63648 -2.21557,-15.31014 -0.29145,-1.84001 -0.34658,-3.71753 -0.72516,-5.54161 -0.5583,-2.68997 -1.67701,-5.20117 -3.35935,-7.35859 0,0 25.5973,-15.05962 25.5973,-15.05962 z"
       inkscape:connector-curvature="0" />
    <path
       style="fill:#000000;fill-opacity:1;fill-rule:nonzero;stroke:none"
       id="path3065"
       d="m 226.92592,525.82635 c 0.23394,-0.73637 -0.0824,-1.43639 -0.0978,-2.158 -0.004,-0.20817 0.15363,-0.43315 0.0751,-0.61798 -0.0711,-0.16735 -0.36781,-0.0408 -0.42872,-0.21401 -0.0539,-0.15317 0.13338,-0.2909 0.20007,-0.43635 -0.058,-0.0447 -0.10551,-0.1389 -0.17399,-0.13415 -0.58432,0.0405 -2.16652,1.04096 -1.6697,0.66316 20.45437,-15.55472 13.17031,-10.16464 21.52752,-15.76756 1.23914,-0.42697 2.23717,-1.43115 3.34839,-2.17064 0.70653,0.15735 1.47944,0.1143 2.20126,0.19822 0.72993,0.0849 1.44672,0.34386 2.17983,0.36022 1.19557,0.0268 10.04241,-0.62698 10.24084,-0.64083 21.21118,-0.9645 42.35955,-4.69504 63.04393,-10.4875 5.70886,-1.59871 11.34956,-3.54082 17.02434,-5.31124 15.91058,-5.64339 31.67663,-12.33137 46.68273,-20.9733 4.26723,-2.45748 8.4266,-5.19077 12.55844,-7.97195 0.9075,-0.61086 -3.61962,2.32867 -2.87227,1.45209 2.30508,-2.70371 5.10069,-4.70483 7.65103,-7.05726 2.05352,-2.33075 4.17957,-4.56968 6.16055,-6.99226 1.82898,-2.23667 3.41298,-4.76146 5.26076,-6.97497 5.37291,-6.43638 10.30912,-11.14882 16.13256,-17.02928 0,0 0.96451,-0.50881 0.96451,-0.50881 l 0,0 c 0.41157,1.18177 1.26173,2.26151 1.23472,3.5453 -0.16677,7.92767 -9.46082,15.33177 -13.38764,20.03225 -2.99942,2.63443 -5.85416,5.53376 -8.99825,7.90329 -9.18718,6.92387 -23.53534,17.22535 -34.54764,23.08307 -14.13738,7.52007 -29.06293,12.65816 -43.80678,18.00775 -30.73527,9.41327 -61.5796,18.25101 -92.44055,27.02618 -2.80396,0.86485 -5.60792,1.72968 -8.41188,2.59453 -2.13702,0.75983 -4.25479,1.60565 -6.41106,2.2795 -1.12209,0.35067 -2.28865,0.45544 -3.41387,0.79087 -1.70657,0.50873 -3.40359,1.29716 -5.07358,1.96744 0.2469,-0.31446 0.43506,-0.69294 0.68272,-1.00651 0.34929,-0.44225 0.83881,-0.80382 1.19641,-1.23558 0.0311,-0.0376 -0.0836,0.0319 -0.12539,0.0479 6.26765,-5.85518 12.56781,-9.60817 19.94949,-15.25505 0.57627,-0.44085 -1.24029,0.71329 -1.7776,1.22225 -0.1218,0.11541 -0.21379,0.27129 -0.32068,0.40693 -1.88838,2.04693 -3.51406,4.39152 -5.34106,6.51643 0,0 -9.01671,4.84587 -9.01671,4.84587 z"
       inkscape:connector-curvature="0" />
    <path
       style="fill:#000000;fill-opacity:1;fill-rule:nonzero;stroke:none"
       id="path3073"
       d="m 342.5268,590.17126 c 0.30813,0.15269 0.58207,0.36147 0.92439,0.45805 0.5801,0.16366 1.20318,0.20795 1.80478,0.31194 0.70556,0.16849 1.42817,0.29734 2.1167,0.50549 0.77865,0.2354 1.50219,0.57463 2.27484,0.82213 1.02297,0.32768 2.11674,0.51828 3.10813,0.90215 1.11725,0.43261 2.12524,1.0238 3.18786,1.5357 1.65112,0.4882 3.34425,0.89493 4.95333,1.46459 10.46219,3.70396 0.18427,1.00431 13.02257,4.47432 10.7685,2.91056 21.15154,4.54558 32.27189,6.32773 13.23138,1.59166 26.57564,1.82271 39.88863,0.82807 3.84398,-0.2872 7.74283,-0.44623 11.48241,-1.20807 4.31719,-0.87953 8.359,-2.45706 12.53851,-3.68559 0,0 -0.65211,0.40479 -0.65211,0.40479 l 0,0 c -8.53338,2.52651 -20.12711,6.18046 -28.81851,7.70163 -4.81682,0.84303 -9.77871,1.04509 -14.68558,1.44514 -17.97848,1.46576 -13.36544,1.13724 -30.69093,0.64922 -4.7059,-0.26778 -9.42108,-0.44764 -14.1177,-0.80331 -3.81263,-0.28873 -19.83911,-1.93618 -24.06378,-2.46644 -3.11014,-0.39037 -6.18882,-0.92562 -9.29119,-1.35311 -2.61776,-0.3607 -5.25988,-0.61022 -7.86829,-1.01129 -1.93642,-0.29775 -3.83829,-0.72257 -5.75744,-1.08384 -1.42526,-0.32363 -2.85052,-0.64725 -4.27578,-0.97088 -1.17668,-0.21777 -2.36361,-0.40329 -3.53008,-0.65331 -2.52073,-0.54025 -4.93418,-1.36409 -7.42642,-1.97603 0,0 23.60377,-12.61908 23.60377,-12.61908 z"
       inkscape:connector-curvature="0" />
    <path
       style="fill:#000000;fill-opacity:1;fill-rule:nonzero;stroke:none"
       id="path3077"
       d="m 470.48602,479.02222 c -6.21933,4.40225 -11.81483,10.11632 -16.52326,16.49617 -3.13819,4.25221 -9.05156,13.96627 -11.67558,18.1778 -5.35049,10.87374 -10.98142,21.61954 -15.24295,33.13133 -1.30982,3.53826 -2.33229,7.20542 -3.51967,10.79913 -5.07076,15.3471 -2.46742,6.34584 -6.45487,21.64762 -2.78496,11.58171 -2.54666,9.98618 -4.78409,21.69946 -0.70527,3.69216 -1.06571,7.48013 -2.01624,11.10047 -5.78374,22.0288 -3.70516,3.48569 -4.93522,24.26111 0,0 -0.77348,0.46707 -0.77348,0.46707 l 0,0 c -1.28803,-2.95263 -2.5065,-5.94583 -3.86408,-8.85788 -1.28951,-2.76605 -3.42863,-5.12645 -4.07416,-8.1699 -0.70316,-3.31509 0.0367,-6.82194 0.17169,-10.22865 0.49594,-12.5148 0.23673,-8.60652 3.45005,-21.25417 1.00949,-3.64636 1.88886,-7.34266 3.02847,-10.93909 1.20353,-3.79815 2.62833,-7.50123 3.9954,-11.22713 5.04934,-13.76173 3.38226,-9.1182 9.31676,-22.78794 7.40462,-17.05607 1.96683,-5.0821 9.63106,-21.57275 5.29704,-10.87752 10.55878,-21.95669 18.12888,-31.05788 0,0 26.14129,-11.68477 26.14129,-11.68477 z"
       inkscape:connector-curvature="0" />
    <path
       style="fill:#000000;fill-opacity:1;fill-rule:nonzero;stroke:none"
       id="path3081"
       d="m 337.68061,463.12644 c -0.44525,1.20953 -0.97353,2.37326 -1.33576,3.62862 -1.1555,4.00461 -2.16845,9.71265 -2.70932,13.74272 -1.03429,7.70655 -1.58993,14.73357 -1.5946,22.60806 -0.002,4.56355 0.30888,9.11829 0.46332,13.67744 1.10288,10.29866 1.86778,19.70633 3.96244,29.80282 1.07167,5.16556 2.53376,10.18284 3.91776,15.22179 1.44181,5.24949 2.89954,10.49702 4.55805,15.63758 1.67397,5.18845 9.44984,26.39228 11.26897,31.38784 6.80551,21.22917 2.51152,11.40235 12.76817,29.56375 0,0 -0.63929,0.48988 -0.63929,0.48988 l 0,0 c -10.19324,-18.31232 -4.665,-9.40259 -16.64685,-26.66402 -6.29076,-11.27801 -9.76477,-16.6002 -14.68486,-28.99057 -1.96466,-4.94765 -3.53139,-10.14665 -5.17981,-15.28515 -4.52755,-14.11344 -8.12433,-28.3439 -11.14367,-43.11374 -0.5908,-4.30854 -1.15124,-8.62427 -1.77239,-12.9256 -0.52823,-3.65785 -1.20178,-7.28038 -1.6756,-10.95075 -0.0645,-0.5001 -1.38201,-14.22788 -1.68194,-15.93642 -0.25489,-1.45199 -0.97218,-2.73546 -1.16688,-4.20305 -0.13524,-1.01937 0.13267,-2.06156 0.199,-3.09233 0,0 23.09326,-14.59887 23.09326,-14.59887 z"
       inkscape:connector-curvature="0" />
    <path
       style="fill:#000000;fill-opacity:1;fill-rule:nonzero;stroke:none"
       id="path3085"
       d="m 387.18897,445.43914 c 1.8625,1.15666 2.16075,3.69114 3.37865,5.43138 0.7327,1.04695 1.76314,1.77039 2.53902,2.77474 0.78765,1.01959 5.23721,7.9437 5.70293,8.66254 1.25361,1.80198 2.41298,3.69762 3.76083,5.40595 1.54366,1.95652 3.27088,3.70771 4.8991,5.57005 7.90304,9.03943 2.66583,3.36839 11.41308,12.3134 2.20021,2.24996 4.31618,4.61388 6.58704,6.76765 2.5268,2.3965 5.19723,4.58241 7.79584,6.87361 9.36506,7.80556 8.32581,7.26982 18.53263,14.3684 3.45986,2.40625 6.92063,4.81941 10.48556,7.01034 3.66155,2.25028 7.47987,4.14208 11.18044,6.30505 6.81546,3.98361 13.15096,8.04122 19.84865,12.25505 11.87241,7.26692 5.60254,4.37337 18.84605,8.57394 0,0 -0.72875,0.58021 -0.72875,0.58021 l 0,0 c -14.04907,-4.26446 -6.76411,-2.1615 -21.86409,-6.26596 -3.80014,-1.51056 -7.67369,-2.79309 -11.40044,-4.53166 -3.72396,-1.73728 -7.30586,-3.85967 -10.92107,-5.88165 -14.48214,-8.09987 -28.64247,-16.99342 -42.74592,-25.93113 -3.02647,-2.0033 -6.13079,-3.85653 -9.07939,-6.00992 -4.26439,-3.11431 -10.18683,-8.32746 -14.08691,-12.16142 -1.92353,-1.89092 -3.68421,-3.99603 -5.59828,-5.89978 -3.39298,-3.37469 -7.05354,-6.37705 -10.40419,-9.81219 -1.25718,-1.44023 -2.48143,-2.92004 -3.77153,-4.32067 -1.09053,-1.18396 -2.24487,-2.28654 -3.36731,-3.4298 -0.84685,-0.93987 -1.69211,-1.88167 -2.54058,-2.8196 -1.40736,-1.55577 -2.8095,-2.94907 -3.56656,-5.08036 0,0 15.1052,-10.74817 15.1052,-10.74817 z"
       inkscape:connector-curvature="0" />
  </g>
  <g
     inkscape:groupmode="layer"
     id="layer2"
     inkscape:label="full" />
</svg>
